{
  "accessors": [
    {
      "name": "Slider84x105_1_0_positions",
      "componentType": 5126,
      "count": 3678,
      "min": [
        -139.35389709472656,
        -6.634399890899658,
        -113.5656967163086
      ],
      "max": [
        79.0365982055664,
        8.881500244140625,
        132.8350067138672
      ],
      "type": "VEC3",
      "bufferView": 0,
      "byteOffset": 0
    },
    {
      "name": "Slider84x105_1_0_normals",
      "componentType": 5126,
      "count": 3678,
      "min": [
        -1,
        -1,
        -1
      ],
      "max": [
        1,
        1,
        1
      ],
      "type": "VEC3",
      "bufferView": 1,
      "byteOffset": 0
    },
    {
      "name": "Slider84x105_1_0_texcoords",
      "componentType": 5126,
      "count": 3678,
      "min": [
        -551.4741821289062,
        -1466.2252197265625
      ],
      "max": [
        794.0018920898438,
        389.24139404296875
      ],
      "type": "VEC2",
      "bufferView": 2,
      "byteOffset": 0
    },
    {
      "name": "Slider84x105_1_0_indices",
      "componentType": 5123,
      "count": 6948,
      "min": [
        0
      ],
      "max": [
        3677
      ],
      "type": "SCALAR",
      "bufferView": 3,
      "byteOffset": 0
    },
    {
      "name": "Slider84x105_1_1_positions",
      "componentType": 5126,
      "count": 24,
      "min": [
        -134.14320373535156,
        -1.514799952507019,
        -111.90789794921875
      ],
      "max": [
        73.73269653320312,
        5.645199775695801,
        126.37220001220703
      ],
      "type": "VEC3",
      "bufferView": 0,
      "byteOffset": 44136
    },
    {
      "name": "Slider84x105_1_1_normals",
      "componentType": 5126,
      "count": 24,
      "min": [
        0,
        -1,
        0
      ],
      "max": [
        0,
        1,
        0
      ],
      "type": "VEC3",
      "bufferView": 1,
      "byteOffset": 44136
    },
    {
      "name": "Slider84x105_1_1_texcoords",
      "componentType": 5126,
      "count": 24,
      "min": [
        -551.4741821289062,
        296.24139404296875
      ],
      "max": [
        284.42498779296875,
        389.24139404296875
      ],
      "type": "VEC2",
      "bufferView": 2,
      "byteOffset": 29424
    },
    {
      "name": "Slider84x105_1_1_indices",
      "componentType": 5123,
      "count": 24,
      "min": [
        0
      ],
      "max": [
        23
      ],
      "type": "SCALAR",
      "bufferView": 3,
      "byteOffset": 13896
    },
    {
      "name": "Slider_Handle189_1_0_positions",
      "componentType": 5126,
      "count": 216,
      "min": [
        68.0708999633789,
        -8.424300193786621,
        -29.770099639892578
      ],
      "max": [
        70.61029815673828,
        -3.3454999923706055,
        -14.533599853515625
      ],
      "type": "VEC3",
      "bufferView": 0,
      "byteOffset": 44424
    },
    {
      "name": "Slider_Handle189_1_0_normals",
      "componentType": 5126,
      "count": 216,
      "min": [
        -1,
        -1,
        -1
      ],
      "max": [
        1,
        1,
        1
      ],
      "type": "VEC3",
      "bufferView": 1,
      "byteOffset": 44424
    },
    {
      "name": "Slider_Handle189_1_0_texcoords",
      "componentType": 5126,
      "count": 216,
      "min": [
        -38.262901306152344,
        1.9075000286102295
      ],
      "max": [
        39.262901306152344,
        11.812999725341797
      ],
      "type": "VEC2",
      "bufferView": 2,
      "byteOffset": 29616
    },
    {
      "name": "Slider_Handle189_1_0_indices",
      "componentType": 5123,
      "count": 756,
      "min": [
        0
      ],
      "max": [
        215
      ],
      "type": "SCALAR",
      "bufferView": 3,
      "byteOffset": 13944
    },
    {
      "name": "Slider_Handle190_1_0_positions",
      "componentType": 5126,
      "count": 216,
      "min": [
        68.0708999633789,
        1.399399995803833,
        -29.770099639892578
      ],
      "max": [
        70.61029815673828,
        6.478300094604492,
        -14.533599853515625
      ],
      "type": "VEC3",
      "bufferView": 0,
      "byteOffset": 47016
    },
    {
      "name": "Slider_Handle190_1_0_normals",
      "componentType": 5126,
      "count": 216,
      "min": [
        -1,
        -1,
        -1
      ],
      "max": [
        1,
        1,
        1
      ],
      "type": "VEC3",
      "bufferView": 1,
      "byteOffset": 47016
    },
    {
      "name": "Slider_Handle190_1_0_texcoords",
      "componentType": 5126,
      "count": 216,
      "min": [
        -38.262901306152344,
        1.9075000286102295
      ],
      "max": [
        39.262901306152344,
        11.812999725341797
      ],
      "type": "VEC2",
      "bufferView": 2,
      "byteOffset": 31344
    },
    {
      "name": "Slider_Handle190_1_0_indices",
      "componentType": 5123,
      "count": 756,
      "min": [
        0
      ],
      "max": [
        215
      ],
      "type": "SCALAR",
      "bufferView": 3,
      "byteOffset": 15456
    }
  ],
  "asset": {
    "generator": "obj2gltf",
    "version": "2.0"
  },
  "buffers": [
    {
      "name": "slidedoor",
      "byteLength": 149256,
      "uri": "data:application/octet-stream;base64,"
    }
  ],
  "bufferViews": [
    {
      "name": "bufferView_0",
      "buffer": 0,
      "byteLength": 49608,
      "byteOffset": 0,
      "byteStride": 12,
      "target": 34962
    },
    {
      "name": "bufferView_1",
      "buffer": 0,
      "byteLength": 49608,
      "byteOffset": 49608,
      "byteStride": 12,
      "target": 34962
    },
    {
      "name": "bufferView_2",
      "buffer": 0,
      "byteLength": 33072,
      "byteOffset": 99216,
      "byteStride": 8,
      "target": 34962
    },
    {
      "name": "bufferView_3",
      "buffer": 0,
      "byteLength": 16968,
      "byteOffset": 132288,
      "target": 34963
    }
  ],
  "materials": [
    {
      "name": "Ebony_mat",
      "pbrMetallicRoughness": {
        "baseColorFactor": [
          0.1176,
          0.1176,
          0.1176,
          1
        ],
        "metallicFactor": 0,
        "roughnessFactor": 0.974
      },
      "emissiveFactor": [
        0,
        0,
        0
      ],
      "alphaMode": "OPAQUE",
      "doubleSided": false
    },
    {
      "name": "Window_Mat",
      "pbrMetallicRoughness": {
        "baseColorFactor": [
          0.8627,
          0.8627,
          0.8627,
          0.19999999999999996
        ],
        "metallicFactor": 0,
        "roughnessFactor": 0.99
      },
      "emissiveFactor": [
        0,
        0,
        0
      ],
      "alphaMode": "BLEND",
      "doubleSided": true
    },
    {
      "name": "Silver_mat",
      "pbrMetallicRoughness": {
        "baseColorFactor": [
          0.698,
          0.698,
          0.698,
          1
        ],
        "metallicFactor": 0,
        "roughnessFactor": 0.94
      },
      "emissiveFactor": [
        0,
        0,
        0
      ],
      "alphaMode": "OPAQUE",
      "doubleSided": false
    }
  ],
  "meshes": [
    {
      "name": "Slider84x105_1",
      "primitives": [
        {
          "attributes": {
            "POSITION": 0,
            "NORMAL": 1,
            "TEXCOORD_0": 2
          },
          "indices": 3,
          "material": 0,
          "mode": 4
        },
        {
          "attributes": {
            "POSITION": 4,
            "NORMAL": 5,
            "TEXCOORD_0": 6
          },
          "indices": 7,
          "material": 1,
          "mode": 4
        }
      ]
    },
    {
      "name": "Slider_Handle189_1",
      "primitives": [
        {
          "attributes": {
            "POSITION": 8,
            "NORMAL": 9,
            "TEXCOORD_0": 10
          },
          "indices": 11,
          "material": 2,
          "mode": 4
        }
      ]
    },
    {
      "name": "Slider_Handle190_1",
      "primitives": [
        {
          "attributes": {
            "POSITION": 12,
            "NORMAL": 13,
            "TEXCOORD_0": 14
          },
          "indices": 15,
          "material": 2,
          "mode": 4
        }
      ]
    }
  ],
  "nodes": [
    {
      "name": "Slider84x105",
      "mesh": 0
    },
    {
      "name": "Slider_Handle189",
      "mesh": 1
    },
    {
      "name": "Slider_Handle190",
      "mesh": 2
    }
  ],
  "scene": 0,
  "scenes": [
    {
      "nodes": [
        0,
        1,
        2
      ]
    }
  ]
}
